<svg id="visual" viewBox="0 0 1200 200" width="1200" height="200" xmlns="http://www.w3.org/2000/svg" xmlns:xlink="http://www.w3.org/1999/xlink" version="1.1"><path d="M0 73L33.3 82C66.7 91 133.3 109 200 118.5C266.7 128 333.3 129 400 118C466.7 107 533.3 84 600 81C666.7 78 733.3 95 800 102.5C866.7 110 933.3 108 1000 100.3C1066.7 92.7 1133.3 79.3 1166.7 72.7L1200 66L1200 201L1166.7 201C1133.3 201 1066.7 201 1000 201C933.3 201 866.7 201 800 201C733.3 201 666.7 201 600 201C533.3 201 466.7 201 400 201C333.3 201 266.7 201 200 201C133.3 201 66.7 201 33.3 201L0 201Z" fill="#ff5820" stroke-linecap="round" stroke-linejoin="miter"></path></svg>